<svg width="184" height="58" viewBox="0 0 184 58" fill="none" xmlns="http://www.w3.org/2000/svg">
<path d="M41.4906 49.3022C40.4833 49.3022 39.5951 49.1099 38.8259 48.7253C38.0567 48.3407 37.4432 47.8188 36.9854 47.1595C36.5458 46.5002 36.3261 45.7585 36.3261 44.9343C36.3261 43.9637 36.5825 43.1854 37.0953 42.5993C37.608 42.0133 38.4413 41.6012 39.5951 41.3631C40.7489 41.1067 42.2781 40.9786 44.1827 40.9786H45.1716V40.5115C45.1716 39.7057 44.9885 39.138 44.6222 38.8084C44.256 38.4604 43.6333 38.2864 42.7542 38.2864C42.0217 38.2864 41.2433 38.4055 40.4192 38.6435C39.6134 38.8633 38.8076 39.2021 38.0018 39.66L36.8755 36.8854C37.3516 36.5741 37.9285 36.2902 38.6061 36.0338C39.3021 35.7774 40.0255 35.5851 40.7763 35.4569C41.5272 35.3104 42.2414 35.2372 42.919 35.2372C45.0068 35.2372 46.5635 35.7133 47.5891 36.6657C48.6146 37.5997 49.1274 39.0556 49.1274 41.0335V49H45.2541V46.9672C44.9793 47.6814 44.5123 48.2491 43.853 48.6704C43.2121 49.0916 42.4246 49.3022 41.4906 49.3022ZM42.4246 46.5276C43.1938 46.5276 43.8439 46.2621 44.375 45.731C44.9061 45.1999 45.1716 44.5131 45.1716 43.6707V43.1213H44.2102C42.8 43.1213 41.8019 43.2495 41.2159 43.5059C40.6298 43.7439 40.3368 44.1652 40.3368 44.7695C40.3368 45.2823 40.5108 45.7035 40.8587 46.0332C41.225 46.3628 41.747 46.5276 42.4246 46.5276ZM52.0569 32.9022V29.0288H56.5346V32.9022H52.0569ZM52.2217 49V35.5119H56.3698V49H52.2217ZM59.5723 49V35.5119H63.638V37.8469C64.279 36.2719 65.6525 35.402 67.7586 35.2372L68.9673 35.1548L69.2145 38.6435L66.8795 38.8908C64.8284 39.0922 63.8028 40.1361 63.8028 42.0224V49H59.5723ZM76.6621 49L69.7669 29.6331H74.1348L78.585 42.874L83.2825 29.6331H86.3593L90.9194 43.0938L95.5345 29.6331H99.6551L92.705 49H89.2437L84.711 36.1437L80.1234 49H76.6621ZM106.871 49.3022C105.278 49.3022 103.904 49.0183 102.751 48.4506C101.615 47.8645 100.736 47.0496 100.113 46.0057C99.5091 44.9435 99.207 43.6982 99.207 42.2697C99.207 40.8778 99.5 39.66 100.086 38.6161C100.69 37.5539 101.505 36.7297 102.531 36.1437C103.575 35.5394 104.774 35.2372 106.13 35.2372C108.089 35.2372 109.646 35.8598 110.8 37.1052C111.953 38.3322 112.53 39.9988 112.53 42.1049V43.1487H103.163C103.309 44.2109 103.694 44.9893 104.317 45.4837C104.957 45.9599 105.837 46.198 106.954 46.198C107.686 46.198 108.428 46.0881 109.179 45.8683C109.93 45.6486 110.607 45.3098 111.212 44.8519L112.31 47.6265C111.633 48.1393 110.8 48.5513 109.811 48.8626C108.84 49.1557 107.86 49.3022 106.871 49.3022ZM106.294 37.9842C105.415 37.9842 104.701 38.2498 104.152 38.7809C103.621 39.312 103.291 40.0537 103.163 41.006H109.096C108.987 38.9915 108.053 37.9842 106.294 37.9842ZM123.267 49.3022C122.314 49.3022 121.454 49.0916 120.684 48.6704C119.933 48.2491 119.375 47.6906 119.009 46.9946V49H114.943V29.6331H119.091V37.3249C119.494 36.684 120.062 36.1803 120.794 35.8141C121.545 35.4295 122.369 35.2372 123.267 35.2372C124.439 35.2372 125.464 35.521 126.343 36.0888C127.241 36.6565 127.937 37.4623 128.431 38.5062C128.926 39.5501 129.173 40.7954 129.173 42.2422C129.173 43.689 128.926 44.9435 128.431 46.0057C127.937 47.0496 127.241 47.8645 126.343 48.4506C125.464 49.0183 124.439 49.3022 123.267 49.3022ZM122.03 46.198C122.909 46.198 123.624 45.8775 124.173 45.2365C124.723 44.5955 124.997 43.5974 124.997 42.2422C124.997 40.9053 124.723 39.9255 124.173 39.3028C123.624 38.6619 122.909 38.3414 122.03 38.3414C121.133 38.3414 120.41 38.6619 119.86 39.3028C119.311 39.9255 119.036 40.9053 119.036 42.2422C119.036 43.5974 119.311 44.5955 119.86 45.2365C120.41 45.8775 121.133 46.198 122.03 46.198ZM132.067 49V29.6331H140.912C143.073 29.6331 144.74 30.1551 145.912 31.199C147.084 32.2429 147.67 33.6988 147.67 35.5668C147.67 37.0136 147.295 38.2223 146.544 39.193C145.811 40.1453 144.758 40.7954 143.385 41.1434C144.355 41.4364 145.152 42.1415 145.775 43.2586L148.906 49H144.209L140.857 42.8191C140.583 42.3246 140.244 41.9858 139.841 41.8027C139.438 41.6012 138.962 41.5005 138.413 41.5005H136.325V49H132.067ZM136.325 38.4238H140.143C142.432 38.4238 143.577 37.5081 143.577 35.6767C143.577 33.8636 142.432 32.9571 140.143 32.9571H136.325V38.4238ZM155.273 49V33.1494H148.872V29.6331H165.932V33.1494H159.531V49H155.273ZM176.256 49.3022C174.169 49.3022 172.383 48.8901 170.9 48.066C169.416 47.2419 168.271 46.0881 167.466 44.6047C166.678 43.103 166.284 41.3357 166.284 39.3028C166.284 37.2883 166.678 35.5394 167.466 34.0559C168.271 32.5542 169.416 31.3913 170.9 30.5672C172.383 29.743 174.169 29.331 176.256 29.331C177.538 29.331 178.765 29.5324 179.937 29.9353C181.109 30.3382 182.071 30.8876 182.822 31.5836L181.503 34.9625C180.679 34.3215 179.846 33.8545 179.003 33.5615C178.179 33.2501 177.309 33.0945 176.394 33.0945C174.544 33.0945 173.143 33.6347 172.191 34.7152C171.257 35.7774 170.79 37.3066 170.79 39.3028C170.79 41.299 171.257 42.8374 172.191 43.9179C173.143 44.9984 174.544 45.5387 176.394 45.5387C177.309 45.5387 178.179 45.3922 179.003 45.0992C179.846 44.7878 180.679 44.3117 181.503 43.6707L182.822 47.0496C182.071 47.7272 181.109 48.2766 179.937 48.6978C178.765 49.1007 177.538 49.3022 176.256 49.3022Z" fill="#193056"/>
<path d="M0 30.6916L12.3008 21L39.3875 32.8038L22.7379 41.5014L0 30.6916Z" fill="#193056"/>
<path d="M53.1933 6.66861L38.7066 7.86584L31.9567 33.3086L48.2109 28.6465L53.1933 6.66861Z" fill="#193056"/>
<path d="M25.085 13.8346L47.4996 28.9707L23.1037 40.8085L25.085 13.8346Z" fill="#6B8A50"/>
</svg>
