<svg width="538" height="75" viewBox="0 0 538 75" fill="none" xmlns="http://www.w3.org/2000/svg">
<rect x="533.136" y="28.5" width="4" height="18" fill="#D9D9D9"/>
<rect x="525.515" y="21.4972" width="4.57224" height="32.0057" fill="#D9D9D9"/>
<rect x="518.467" y="28.5" width="4" height="18" fill="#D9D9D9"/>
<rect x="510.847" y="21.4972" width="4.57224" height="32.0057" fill="#D9D9D9"/>
<rect x="502.799" y="28.5" width="5" height="18" fill="#D9D9D9"/>
<rect x="495.178" y="21.4972" width="4.57224" height="32.0057" fill="#D9D9D9"/>
<rect x="487.13" y="28.5" width="5" height="18" fill="#D9D9D9"/>
<rect x="479.51" y="21.4972" width="4.57224" height="32.0057" fill="#D9D9D9"/>
<rect x="472.461" y="28.5" width="4" height="18" fill="#D9D9D9"/>
<rect x="464.841" y="21.4972" width="4.57224" height="32.0057" fill="#D9D9D9"/>
<rect x="457.793" y="28.5" width="4" height="18" fill="#D9D9D9"/>
<rect x="450.172" y="21.4972" width="4.57224" height="32.0057" fill="#D9D9D9"/>
<rect x="442.125" y="28.5" width="5" height="18" fill="#D9D9D9"/>
<rect x="434.504" y="21.4972" width="4.57224" height="32.0057" fill="#D9D9D9"/>
<rect x="426.456" y="28.5" width="5" height="18" fill="#D9D9D9"/>
<rect x="418.835" y="21.4972" width="4.57224" height="32.0057" fill="#D9D9D9"/>
<rect x="411.215" y="30.6417" width="4.57224" height="13.7167" fill="#D9D9D9"/>
<rect x="403.595" y="30.6417" width="4.57224" height="13.7167" fill="#D9D9D9"/>
<rect x="395.974" y="30.6417" width="4.57224" height="13.7167" fill="#D9D9D9"/>
<rect x="388.354" y="30.6417" width="4.57224" height="13.7167" fill="#D9D9D9"/>
<rect x="380.733" y="30.6417" width="4.57224" height="13.7167" fill="#D9D9D9"/>
<rect x="373.113" y="30.6417" width="4.57224" height="13.7167" fill="#D9D9D9"/>
<rect x="365.493" y="30.6417" width="4.57224" height="13.7167" fill="#D9D9D9"/>
<rect x="357.872" y="30.6417" width="4.57224" height="13.7167" fill="#D9D9D9"/>
<rect x="350.252" y="30.6417" width="4.57224" height="13.7167" fill="#D9D9D9"/>
<rect x="342.631" y="30.6417" width="4.57224" height="13.7167" fill="#D9D9D9"/>
<rect x="335.011" y="30.6417" width="4.57224" height="13.7167" fill="#D9D9D9"/>
<rect x="327.391" y="30.6417" width="4.57224" height="13.7167" fill="#D9D9D9"/>
<rect x="319.771" y="30.6417" width="4.57224" height="13.7167" fill="#D9D9D9"/>
<rect x="312.15" y="30.6417" width="4.57224" height="13.7167" fill="#D9D9D9"/>
<rect x="304.53" y="30.6417" width="4.57224" height="13.7167" fill="#D9D9D9"/>
<rect x="296.909" y="21.4972" width="4.57224" height="32.0057" fill="#D9D9D9"/>
<rect x="288.861" y="26" width="5" height="23" fill="#D9D9D9"/>
<rect x="281.241" y="21.4972" width="4.57224" height="32.0057" fill="#D9D9D9"/>
<rect x="274.192" y="26" width="4" height="23" fill="#D9D9D9"/>
<rect x="266.572" y="21.4972" width="4.57224" height="32.0057" fill="#D9D9D9"/>
<rect x="259.524" y="26" width="4" height="23" fill="#D9D9D9"/>
<rect x="251.903" y="21.4972" width="4.57224" height="32.0057" fill="#D9D9D9"/>
<rect x="243.855" y="26" width="5" height="23" fill="#D9D9D9"/>
<rect x="236.235" y="21.4972" width="4.57224" height="32.0057" fill="#D9D9D9"/>
<rect x="228.615" y="0.922119" width="4.57224" height="73.1558" fill="#D9D9D9"/>
<rect x="220.994" y="0.922119" width="4.57224" height="73.1558" fill="#D9D9D9"/>
<rect x="213.374" y="0.922119" width="4.57224" height="73.1558" fill="#D9D9D9"/>
<rect x="205.753" y="0.922119" width="4.57224" height="73.1558" fill="#D9D9D9"/>
<rect x="198.133" y="5.49432" width="4.57224" height="64.0113" fill="#D9D9D9"/>
<rect x="190.513" y="0.922119" width="4.57224" height="73.1558" fill="#D9D9D9"/>
<rect x="182.892" y="5.49432" width="4.57224" height="64.0113" fill="#D9D9D9"/>
<rect x="175.272" y="0.922119" width="4.57224" height="73.1558" fill="#D9D9D9"/>
<rect x="167.651" y="5.49432" width="4.57224" height="64.0113" fill="#D9D9D9"/>
<rect x="160.031" y="0.922119" width="4.57224" height="73.1558" fill="#D9D9D9"/>
<rect x="152.411" y="0.922119" width="4.57224" height="73.1558" fill="#D9D9D9"/>
<rect x="144.79" y="0.922119" width="4.57224" height="73.1558" fill="#D9D9D9"/>
<rect x="137.17" y="21.4972" width="4.57224" height="32.0057" fill="#D9D9D9"/>
<rect x="130.122" y="26" width="4" height="23" fill="#D9D9D9"/>
<rect x="122.501" y="21.4972" width="4.57224" height="32.0057" fill="#D9D9D9"/>
<rect x="114.453" y="26" width="5" height="23" fill="#D9D9D9"/>
<rect x="106.833" y="21.4972" width="4.57224" height="32.0057" fill="#D9D9D9"/>
<rect x="98.7847" y="26" width="5" height="23" fill="#D9D9D9"/>
<rect x="91.1641" y="21.4972" width="4.57224" height="32.0057" fill="#D9D9D9"/>
<rect x="84.1162" y="26" width="4" height="23" fill="#D9D9D9"/>
<rect x="76.4956" y="21.4972" width="4.57224" height="32.0057" fill="#D9D9D9"/>
<rect x="69.4478" y="26" width="4" height="23" fill="#D9D9D9"/>
<rect x="61.8271" y="21.4972" width="4.57224" height="32.0057" fill="#D9D9D9"/>
<rect x="54.2065" y="30.6417" width="4.57224" height="13.7167" fill="#D9D9D9"/>
<rect x="46.5864" y="30.6417" width="4.57224" height="13.7167" fill="#D9D9D9"/>
<rect x="38.9658" y="30.6417" width="4.57224" height="13.7167" fill="#D9D9D9"/>
<rect x="31.3457" y="30.6417" width="4.57224" height="13.7167" fill="#D9D9D9"/>
<rect x="23.7251" y="30.6417" width="4.57224" height="13.7167" fill="#D9D9D9"/>
<rect x="16.1045" y="30.6417" width="4.57224" height="13.7167" fill="#D9D9D9"/>
<rect x="8.48438" y="30.6417" width="4.57224" height="13.7167" fill="#D9D9D9"/>
<rect x="0.86377" y="21.4972" width="4.57224" height="32.0057" fill="#D9D9D9"/>
</svg>
