<svg width="538" height="75" viewBox="0 0 538 75" fill="none" xmlns="http://www.w3.org/2000/svg">
<rect x="4.86377" y="46.4999" width="4" height="18" transform="rotate(-180 4.86377 46.4999)" fill="#D9D9D9"/>
<rect x="12.4844" y="53.5027" width="4.57224" height="32.0057" transform="rotate(-180 12.4844 53.5027)" fill="#D9D9D9"/>
<rect x="19.5322" y="46.4999" width="4" height="18" transform="rotate(-180 19.5322 46.4999)" fill="#D9D9D9"/>
<rect x="27.1528" y="53.5027" width="4.57224" height="32.0057" transform="rotate(-180 27.1528 53.5027)" fill="#D9D9D9"/>
<rect x="35.2007" y="46.4999" width="5" height="18" transform="rotate(-180 35.2007 46.4999)" fill="#D9D9D9"/>
<rect x="42.8213" y="53.5028" width="4.57224" height="32.0057" transform="rotate(-180 42.8213 53.5028)" fill="#D9D9D9"/>
<rect x="50.8696" y="46.4999" width="5" height="18" transform="rotate(-180 50.8696 46.4999)" fill="#D9D9D9"/>
<rect x="58.4897" y="53.5028" width="4.57224" height="32.0057" transform="rotate(-180 58.4897 53.5028)" fill="#D9D9D9"/>
<rect x="65.5381" y="46.4999" width="4" height="18" transform="rotate(-180 65.5381 46.4999)" fill="#D9D9D9"/>
<rect x="73.1582" y="53.5028" width="4.57224" height="32.0057" transform="rotate(-180 73.1582 53.5028)" fill="#D9D9D9"/>
<rect x="80.2065" y="46.4999" width="4" height="18" transform="rotate(-180 80.2065 46.4999)" fill="#D9D9D9"/>
<rect x="87.8271" y="53.5028" width="4.57224" height="32.0057" transform="rotate(-180 87.8271 53.5028)" fill="#D9D9D9"/>
<rect x="95.875" y="46.4999" width="5" height="18" transform="rotate(-180 95.875 46.4999)" fill="#D9D9D9"/>
<rect x="103.496" y="53.5028" width="4.57224" height="32.0057" transform="rotate(-180 103.496 53.5028)" fill="#D9D9D9"/>
<rect x="111.543" y="46.4999" width="5" height="18" transform="rotate(-180 111.543 46.4999)" fill="#D9D9D9"/>
<rect x="119.164" y="53.5028" width="4.57224" height="32.0057" transform="rotate(-180 119.164 53.5028)" fill="#D9D9D9"/>
<rect x="126.785" y="44.3583" width="4.57224" height="13.7167" transform="rotate(-180 126.785 44.3583)" fill="#D9D9D9"/>
<rect x="134.405" y="44.3583" width="4.57224" height="13.7167" transform="rotate(-180 134.405 44.3583)" fill="#D9D9D9"/>
<rect x="142.025" y="44.3583" width="4.57224" height="13.7167" transform="rotate(-180 142.025 44.3583)" fill="#D9D9D9"/>
<rect x="149.646" y="44.3583" width="4.57224" height="13.7167" transform="rotate(-180 149.646 44.3583)" fill="#D9D9D9"/>
<rect x="157.266" y="44.3583" width="4.57224" height="13.7167" transform="rotate(-180 157.266 44.3583)" fill="#D9D9D9"/>
<rect x="164.886" y="44.3583" width="4.57224" height="13.7167" transform="rotate(-180 164.886 44.3583)" fill="#D9D9D9"/>
<rect x="172.507" y="44.3583" width="4.57224" height="13.7167" transform="rotate(-180 172.507 44.3583)" fill="#D9D9D9"/>
<rect x="180.127" y="44.3583" width="4.57224" height="13.7167" transform="rotate(-180 180.127 44.3583)" fill="#D9D9D9"/>
<rect x="187.748" y="44.3583" width="4.57224" height="13.7167" transform="rotate(-180 187.748 44.3583)" fill="#D9D9D9"/>
<rect x="195.368" y="44.3583" width="4.57224" height="13.7167" transform="rotate(-180 195.368 44.3583)" fill="#D9D9D9"/>
<rect x="202.988" y="44.3583" width="4.57224" height="13.7167" transform="rotate(-180 202.988 44.3583)" fill="#D9D9D9"/>
<rect x="210.609" y="44.3583" width="4.57224" height="13.7167" transform="rotate(-180 210.609 44.3583)" fill="#D9D9D9"/>
<rect x="218.229" y="44.3583" width="4.57224" height="13.7167" transform="rotate(-180 218.229 44.3583)" fill="#D9D9D9"/>
<rect x="225.85" y="44.3583" width="4.57224" height="13.7167" transform="rotate(-180 225.85 44.3583)" fill="#D9D9D9"/>
<rect x="233.47" y="44.3583" width="4.57224" height="13.7167" transform="rotate(-180 233.47 44.3583)" fill="#D9D9D9"/>
<rect x="241.09" y="53.5028" width="4.57224" height="32.0057" transform="rotate(-180 241.09 53.5028)" fill="#D9D9D9"/>
<rect x="249.139" y="49" width="5" height="23" transform="rotate(-180 249.139 49)" fill="#D9D9D9"/>
<rect x="256.759" y="53.5028" width="4.57224" height="32.0057" transform="rotate(-180 256.759 53.5028)" fill="#D9D9D9"/>
<rect x="263.807" y="49" width="4" height="23" transform="rotate(-180 263.807 49)" fill="#D9D9D9"/>
<rect x="271.427" y="53.5028" width="4.57224" height="32.0057" transform="rotate(-180 271.427 53.5028)" fill="#D9D9D9"/>
<rect x="278.476" y="49" width="4" height="23" transform="rotate(-180 278.476 49)" fill="#D9D9D9"/>
<rect x="286.096" y="53.5028" width="4.57224" height="32.0057" transform="rotate(-180 286.096 53.5028)" fill="#D9D9D9"/>
<rect x="294.144" y="49" width="5" height="23" transform="rotate(-180 294.144 49)" fill="#D9D9D9"/>
<rect x="301.765" y="53.5028" width="4.57224" height="32.0057" transform="rotate(-180 301.765 53.5028)" fill="#D9D9D9"/>
<rect x="309.385" y="74.0779" width="4.57224" height="73.1558" transform="rotate(-180 309.385 74.0779)" fill="#D9D9D9"/>
<rect x="317.005" y="74.0779" width="4.57224" height="73.1558" transform="rotate(-180 317.005 74.0779)" fill="#D9D9D9"/>
<rect x="324.625" y="74.0779" width="4.57224" height="73.1558" transform="rotate(-180 324.625 74.0779)" fill="#D9D9D9"/>
<rect x="332.246" y="74.0779" width="4.57224" height="73.1558" transform="rotate(-180 332.246 74.0779)" fill="#D9D9D9"/>
<rect x="339.867" y="69.5057" width="4.57224" height="64.0113" transform="rotate(-180 339.867 69.5057)" fill="#D9D9D9"/>
<rect x="347.487" y="74.0779" width="4.57224" height="73.1558" transform="rotate(-180 347.487 74.0779)" fill="#D9D9D9"/>
<rect x="355.107" y="69.5057" width="4.57224" height="64.0113" transform="rotate(-180 355.107 69.5057)" fill="#D9D9D9"/>
<rect x="362.728" y="74.0779" width="4.57224" height="73.1558" transform="rotate(-180 362.728 74.0779)" fill="#D9D9D9"/>
<rect x="370.348" y="69.5057" width="4.57224" height="64.0113" transform="rotate(-180 370.348 69.5057)" fill="#D9D9D9"/>
<rect x="377.968" y="74.0779" width="4.57224" height="73.1558" transform="rotate(-180 377.968 74.0779)" fill="#D9D9D9"/>
<rect x="385.589" y="74.0779" width="4.57224" height="73.1558" transform="rotate(-180 385.589 74.0779)" fill="#D9D9D9"/>
<rect x="393.209" y="74.0779" width="4.57224" height="73.1558" transform="rotate(-180 393.209 74.0779)" fill="#D9D9D9"/>
<rect x="400.83" y="53.5029" width="4.57224" height="32.0057" transform="rotate(-180 400.83 53.5029)" fill="#D9D9D9"/>
<rect x="407.878" y="49" width="4" height="23" transform="rotate(-180 407.878 49)" fill="#D9D9D9"/>
<rect x="415.498" y="53.5029" width="4.57224" height="32.0057" transform="rotate(-180 415.498 53.5029)" fill="#D9D9D9"/>
<rect x="423.546" y="49" width="5" height="23" transform="rotate(-180 423.546 49)" fill="#D9D9D9"/>
<rect x="431.167" y="53.5029" width="4.57224" height="32.0057" transform="rotate(-180 431.167 53.5029)" fill="#D9D9D9"/>
<rect x="439.215" y="49" width="5" height="23" transform="rotate(-180 439.215 49)" fill="#D9D9D9"/>
<rect x="446.835" y="53.5029" width="4.57224" height="32.0057" transform="rotate(-180 446.835 53.5029)" fill="#D9D9D9"/>
<rect x="453.883" y="49" width="4" height="23" transform="rotate(-180 453.883 49)" fill="#D9D9D9"/>
<rect x="461.504" y="53.5029" width="4.57224" height="32.0057" transform="rotate(-180 461.504 53.5029)" fill="#D9D9D9"/>
<rect x="468.552" y="49" width="4" height="23" transform="rotate(-180 468.552 49)" fill="#D9D9D9"/>
<rect x="476.172" y="53.5029" width="4.57224" height="32.0057" transform="rotate(-180 476.172 53.5029)" fill="#D9D9D9"/>
<rect x="483.793" y="44.3584" width="4.57224" height="13.7167" transform="rotate(-180 483.793 44.3584)" fill="#D9D9D9"/>
<rect x="491.413" y="44.3584" width="4.57224" height="13.7167" transform="rotate(-180 491.413 44.3584)" fill="#D9D9D9"/>
<rect x="499.034" y="44.3584" width="4.57224" height="13.7167" transform="rotate(-180 499.034 44.3584)" fill="#D9D9D9"/>
<rect x="506.654" y="44.3584" width="4.57224" height="13.7167" transform="rotate(-180 506.654 44.3584)" fill="#D9D9D9"/>
<rect x="514.274" y="44.3584" width="4.57224" height="13.7167" transform="rotate(-180 514.274 44.3584)" fill="#D9D9D9"/>
<rect x="521.895" y="44.3584" width="4.57224" height="13.7167" transform="rotate(-180 521.895 44.3584)" fill="#D9D9D9"/>
<rect x="529.515" y="44.3584" width="4.57224" height="13.7167" transform="rotate(-180 529.515 44.3584)" fill="#D9D9D9"/>
<rect x="537.136" y="53.5029" width="4.57224" height="32.0057" transform="rotate(-180 537.136 53.5029)" fill="#D9D9D9"/>
</svg>
